<mxfile host="app.diagrams.net" agent="Mozilla/5.0 (Windows NT 10.0; Win64; x64) AppleWebKit/537.36 (KHTML, like Gecko) Chrome/133.0.0.0 Safari/537.36" version="26.0.16">
  <diagram name="Page-1" id="Z4tJ28hHdNKehhFXUReA">
    <mxGraphModel dx="1580" dy="670" grid="1" gridSize="10" guides="1" tooltips="1" connect="1" arrows="1" fold="1" page="1" pageScale="1" pageWidth="413" pageHeight="583" math="0" shadow="0">
      <root>
        <mxCell id="0" />
        <mxCell id="1" parent="0" />
        <mxCell id="gfE5LQtOu5nL28kONhuV-24" style="edgeStyle=orthogonalEdgeStyle;rounded=0;orthogonalLoop=1;jettySize=auto;html=1;exitX=0.25;exitY=0;exitDx=0;exitDy=0;" edge="1" parent="1" source="gfE5LQtOu5nL28kONhuV-1" target="gfE5LQtOu5nL28kONhuV-20">
          <mxGeometry relative="1" as="geometry" />
        </mxCell>
        <mxCell id="gfE5LQtOu5nL28kONhuV-25" style="edgeStyle=orthogonalEdgeStyle;rounded=0;orthogonalLoop=1;jettySize=auto;html=1;exitX=0.75;exitY=0;exitDx=0;exitDy=0;entryX=0;entryY=1;entryDx=0;entryDy=0;" edge="1" parent="1" source="gfE5LQtOu5nL28kONhuV-1" target="gfE5LQtOu5nL28kONhuV-21">
          <mxGeometry relative="1" as="geometry" />
        </mxCell>
        <mxCell id="gfE5LQtOu5nL28kONhuV-1" value="" style="rounded=0;whiteSpace=wrap;html=1;" vertex="1" parent="1">
          <mxGeometry x="60" y="260" width="150" height="70" as="geometry" />
        </mxCell>
        <mxCell id="gfE5LQtOu5nL28kONhuV-17" style="edgeStyle=orthogonalEdgeStyle;rounded=0;orthogonalLoop=1;jettySize=auto;html=1;entryX=0;entryY=0.5;entryDx=0;entryDy=0;" edge="1" parent="1" source="gfE5LQtOu5nL28kONhuV-2" target="gfE5LQtOu5nL28kONhuV-3">
          <mxGeometry relative="1" as="geometry" />
        </mxCell>
        <mxCell id="gfE5LQtOu5nL28kONhuV-2" value="" style="rhombus;whiteSpace=wrap;html=1;" vertex="1" parent="1">
          <mxGeometry x="290" y="221.25" width="124" height="150" as="geometry" />
        </mxCell>
        <mxCell id="gfE5LQtOu5nL28kONhuV-18" style="edgeStyle=orthogonalEdgeStyle;rounded=0;orthogonalLoop=1;jettySize=auto;html=1;" edge="1" parent="1" source="gfE5LQtOu5nL28kONhuV-3" target="gfE5LQtOu5nL28kONhuV-11">
          <mxGeometry relative="1" as="geometry" />
        </mxCell>
        <mxCell id="gfE5LQtOu5nL28kONhuV-3" value="" style="rounded=0;whiteSpace=wrap;html=1;" vertex="1" parent="1">
          <mxGeometry x="490" y="257.5" width="160" height="75" as="geometry" />
        </mxCell>
        <mxCell id="gfE5LQtOu5nL28kONhuV-6" value="" style="rounded=0;whiteSpace=wrap;html=1;" vertex="1" parent="1">
          <mxGeometry x="950" y="265" width="183" height="60" as="geometry" />
        </mxCell>
        <mxCell id="gfE5LQtOu5nL28kONhuV-16" style="edgeStyle=orthogonalEdgeStyle;rounded=0;orthogonalLoop=1;jettySize=auto;html=1;entryX=0;entryY=0.5;entryDx=0;entryDy=0;" edge="1" parent="1" source="gfE5LQtOu5nL28kONhuV-7" target="gfE5LQtOu5nL28kONhuV-2">
          <mxGeometry relative="1" as="geometry" />
        </mxCell>
        <mxCell id="gfE5LQtOu5nL28kONhuV-7" value="Customer" style="text;html=1;align=center;verticalAlign=middle;whiteSpace=wrap;rounded=0;fontSize=20;" vertex="1" parent="1">
          <mxGeometry x="70" y="280" width="130" height="30" as="geometry" />
        </mxCell>
        <mxCell id="gfE5LQtOu5nL28kONhuV-8" value="&lt;font style=&quot;font-size: 20px;&quot;&gt;Places&lt;/font&gt;" style="text;html=1;align=center;verticalAlign=middle;whiteSpace=wrap;rounded=0;" vertex="1" parent="1">
          <mxGeometry x="322" y="281.25" width="60" height="30" as="geometry" />
        </mxCell>
        <mxCell id="gfE5LQtOu5nL28kONhuV-19" style="edgeStyle=orthogonalEdgeStyle;rounded=0;orthogonalLoop=1;jettySize=auto;html=1;entryX=0;entryY=0.5;entryDx=0;entryDy=0;" edge="1" parent="1" source="gfE5LQtOu5nL28kONhuV-11" target="gfE5LQtOu5nL28kONhuV-6">
          <mxGeometry relative="1" as="geometry" />
        </mxCell>
        <mxCell id="gfE5LQtOu5nL28kONhuV-11" value="" style="rhombus;whiteSpace=wrap;html=1;" vertex="1" parent="1">
          <mxGeometry x="740" y="221.25" width="124" height="150" as="geometry" />
        </mxCell>
        <mxCell id="gfE5LQtOu5nL28kONhuV-12" value="&lt;font style=&quot;font-size: 20px;&quot;&gt;Orders&lt;/font&gt;" style="text;html=1;align=center;verticalAlign=middle;whiteSpace=wrap;rounded=0;" vertex="1" parent="1">
          <mxGeometry x="540" y="277" width="60" height="30" as="geometry" />
        </mxCell>
        <mxCell id="gfE5LQtOu5nL28kONhuV-13" value="&lt;font style=&quot;font-size: 20px;&quot;&gt;Contains&lt;/font&gt;" style="text;html=1;align=center;verticalAlign=middle;whiteSpace=wrap;rounded=0;" vertex="1" parent="1">
          <mxGeometry x="772" y="280" width="60" height="30" as="geometry" />
        </mxCell>
        <mxCell id="gfE5LQtOu5nL28kONhuV-14" value="&lt;font style=&quot;font-size: 20px;&quot;&gt;Produc&lt;span style=&quot;background-color: transparent; color: light-dark(rgb(0, 0, 0), rgb(255, 255, 255));&quot;&gt;t&lt;/span&gt;&lt;/font&gt;" style="text;html=1;align=center;verticalAlign=middle;whiteSpace=wrap;rounded=0;" vertex="1" parent="1">
          <mxGeometry x="1011.5" y="281.25" width="60" height="30" as="geometry" />
        </mxCell>
        <mxCell id="gfE5LQtOu5nL28kONhuV-26" style="edgeStyle=orthogonalEdgeStyle;rounded=0;orthogonalLoop=1;jettySize=auto;html=1;exitX=0;exitY=0;exitDx=0;exitDy=0;" edge="1" parent="1" source="gfE5LQtOu5nL28kONhuV-20" target="gfE5LQtOu5nL28kONhuV-22">
          <mxGeometry relative="1" as="geometry" />
        </mxCell>
        <mxCell id="gfE5LQtOu5nL28kONhuV-27" style="edgeStyle=orthogonalEdgeStyle;rounded=0;orthogonalLoop=1;jettySize=auto;html=1;entryX=0.5;entryY=1;entryDx=0;entryDy=0;" edge="1" parent="1" source="gfE5LQtOu5nL28kONhuV-20" target="gfE5LQtOu5nL28kONhuV-23">
          <mxGeometry relative="1" as="geometry" />
        </mxCell>
        <mxCell id="gfE5LQtOu5nL28kONhuV-20" value="" style="ellipse;whiteSpace=wrap;html=1;" vertex="1" parent="1">
          <mxGeometry x="40" y="140" width="110" height="50" as="geometry" />
        </mxCell>
        <mxCell id="gfE5LQtOu5nL28kONhuV-21" value="" style="ellipse;whiteSpace=wrap;html=1;" vertex="1" parent="1">
          <mxGeometry x="170" y="130" width="110" height="60" as="geometry" />
        </mxCell>
        <mxCell id="gfE5LQtOu5nL28kONhuV-22" value="" style="ellipse;whiteSpace=wrap;html=1;" vertex="1" parent="1">
          <mxGeometry x="-60" y="20" width="110" height="50" as="geometry" />
        </mxCell>
        <mxCell id="gfE5LQtOu5nL28kONhuV-23" value="" style="ellipse;whiteSpace=wrap;html=1;" vertex="1" parent="1">
          <mxGeometry x="90" y="20" width="110" height="50" as="geometry" />
        </mxCell>
      </root>
    </mxGraphModel>
  </diagram>
</mxfile>
